<svg width="91" height="80" viewBox="0 0 91 80" fill="none" xmlns="http://www.w3.org/2000/svg">
<path d="M75.8671 75.2483C73.4749 75.8826 71.339 76.1997 69.4594 76.1997C67.6368 76.1997 66.0135 76.0844 64.5896 75.8538C63.1657 75.6231 61.6278 75.1618 59.9761 74.4699C58.3812 73.8356 56.8719 73.086 55.4479 72.2211C54.024 71.3562 52.6001 70.2894 51.1761 69.0209C48.5561 66.8874 46.1639 64.5809 43.9995 62.1015C41.8921 59.622 37.7912 54.9803 31.6967 48.1762C31.3509 47.7868 31.0116 47.4048 30.6789 47.0302H38.0521C44.3712 54.0408 48.6035 58.6321 50.749 60.8041C53.5399 63.6295 55.989 65.936 58.0965 67.7235C60.2608 69.5687 62.1689 70.9237 63.8207 71.7886C67.1812 73.6338 70.5132 74.5564 73.8167 74.5564C74.5002 74.5564 75.1837 74.4987 75.8671 74.3834V75.2483Z" fill="white"/>
<path d="M33.32 16.693C33.32 19.9758 32.6167 22.6553 31.2102 24.7314H37.5713C39.0089 22.0327 39.7277 19.0073 39.7277 15.6551C39.7277 10.9269 38.1899 7.15003 35.1142 4.32462C32.0954 1.44154 28.08 0 23.0677 0H0V0.864922H1.11067C2.59156 0.864922 3.84462 1.41271 4.86985 2.50828C5.95204 3.54619 6.52161 4.81474 6.57857 6.31394V24.7314H12.1319V2.68126H22.726C26.0864 2.73892 28.678 4.03631 30.5006 6.57342C32.3802 9.11053 33.32 12.4837 33.32 16.693Z" fill="white"/>
<path d="M12.1319 38.2458H6.57857V54.3172C6.52161 55.8164 5.95204 57.0849 4.86985 58.1228C3.78766 59.1608 2.5346 59.6797 1.11067 59.6797H0V60.5446H18.7105L18.625 59.6797H17.5998C16.062 59.6797 14.7519 59.1319 13.6698 58.0364C12.6445 56.9408 12.1319 55.6722 12.1319 54.2307V38.2458Z" fill="white"/>
<path d="M83.0545 71.6967C88.3515 66.1036 91 58.3481 91 48.4303C91 47.7384 90.9715 47.0464 90.9146 46.3545H90.0602C90.0602 55.984 87.3832 63.5665 82.0292 69.102C76.7322 74.6375 69.8688 77.4052 61.4392 77.4052C53.0095 77.4052 46.1746 74.6375 40.9345 69.102C35.7514 63.5088 33.1598 56.5894 33.1598 48.3438C33.1598 47.9019 33.167 47.464 33.1814 47.0302H26.7824C26.7622 47.5216 26.7521 48.0172 26.7521 48.5168C26.7521 54.3983 28.1761 59.732 31.0239 64.5179C33.9288 69.3038 37.9727 73.0806 43.1559 75.8484C48.3959 78.6161 54.2625 80 60.7557 80C70.3815 80 77.8144 77.2322 83.0545 71.6967Z" fill="white"/>
<path d="M37.5605 24.7314H44.07C48.4835 21.3294 53.6751 19.6284 59.645 19.6284C64.942 19.6284 69.7549 21.0122 74.0837 23.78C78.4124 26.4901 81.1749 30.2669 82.371 35.1105H83.1399L81.4312 22.9151C78.7542 21.1276 75.3937 19.7148 71.3497 18.6769C67.3627 17.5814 63.4327 17.0336 59.5596 17.0336C53.4082 17.0336 47.8264 18.4175 42.8141 21.1852C40.9061 22.2169 39.1549 23.3989 37.5605 24.7314Z" fill="white"/>
<path d="M2.71921 29.5947H3.69043C4.15974 29.5947 4.50086 29.4561 4.71379 29.179C4.92672 28.8974 5.03319 28.4597 5.03319 27.8658C5.03319 27.5359 5.0006 27.2631 4.93541 27.0476C4.87458 26.8276 4.77463 26.6582 4.63557 26.5395C4.50086 26.4207 4.34443 26.3393 4.16626 26.2953C3.98809 26.2469 3.7643 26.2227 3.49488 26.2227H2.71921C2.6801 26.2227 2.66054 26.2601 2.66054 26.3349V29.4496C2.66054 29.5463 2.6801 29.5947 2.71921 29.5947ZM1.76754 34.8672C1.7154 34.8672 1.67629 34.8496 1.65022 34.8144C1.62414 34.7748 1.61111 34.6956 1.61111 34.5768V25.6816C1.61111 25.5936 1.61763 25.5276 1.63066 25.4836C1.64804 25.4353 1.66543 25.4067 1.68281 25.3979C1.70454 25.3847 1.73278 25.3781 1.76754 25.3781H3.74909C3.95333 25.3781 4.12932 25.3847 4.27707 25.3979C4.42916 25.4067 4.58995 25.4331 4.75942 25.477C4.93324 25.5166 5.08099 25.5716 5.20266 25.642C5.32433 25.7124 5.44384 25.8092 5.56116 25.9324C5.67849 26.0511 5.77192 26.1963 5.84145 26.3679C5.91532 26.5395 5.97399 26.7484 6.01744 26.9948C6.0609 27.2411 6.08262 27.5205 6.08262 27.8328C6.08262 28.264 6.03482 28.6247 5.93922 28.915C5.84362 29.2054 5.72412 29.421 5.58072 29.5617C5.43732 29.6981 5.25481 29.8125 5.03319 29.9049C5.0158 29.9225 5.00711 29.9379 5.00711 29.9511C5.00711 29.9687 5.01363 29.9775 5.02667 29.9775C5.15703 30.039 5.25915 30.094 5.33303 30.1424C5.41124 30.1864 5.50033 30.2612 5.60027 30.3668C5.70457 30.4724 5.78496 30.5912 5.84145 30.7231C5.89794 30.8507 5.94791 31.0245 5.99137 31.2444C6.03917 31.4644 6.06742 31.7196 6.07611 32.0099C6.0848 32.2475 6.08914 33.0855 6.08914 34.5241C6.08914 34.7528 6.04569 34.8672 5.95878 34.8672C5.4547 34.8716 5.19832 34.8738 5.18962 34.8738C5.10706 34.8738 5.06578 34.766 5.06578 34.5505C5.06143 34.5109 5.05057 34.0181 5.03319 33.0723C5.02015 32.1265 5.00277 31.6052 4.98104 31.5084C4.95062 30.7869 4.59212 30.4262 3.90553 30.4262H2.72573C2.68227 30.4262 2.66054 30.468 2.66054 30.5516V34.5768C2.66054 34.6956 2.64751 34.7748 2.62144 34.8144C2.59536 34.8496 2.55408 34.8672 2.49759 34.8672H1.76754Z" fill="white"/>
<path d="M10.1977 34.9398C9.98045 34.9398 9.79142 34.9068 9.63064 34.8408C9.46985 34.7704 9.31993 34.6494 9.18088 34.4779C9.04617 34.3019 8.94188 34.0423 8.868 33.6992C8.79847 33.3517 8.76371 32.9205 8.76371 32.4058V28.5587C8.76371 28.4267 8.77675 28.3387 8.80282 28.2948C8.82889 28.2508 8.868 28.2288 8.92015 28.2288H9.48724C9.54373 28.2288 9.58501 28.2508 9.61108 28.2948C9.63715 28.3387 9.65019 28.4267 9.65019 28.5587V32.6434C9.65019 33.2153 9.70886 33.6178 9.82618 33.851C9.94786 34.0797 10.126 34.1941 10.3607 34.1941C10.6388 34.1941 10.8713 34.005 11.0581 33.6266C11.245 33.2439 11.3384 32.8194 11.3384 32.353V28.5587C11.3384 28.4267 11.3515 28.3387 11.3775 28.2948C11.4036 28.2508 11.4449 28.2288 11.5014 28.2288H12.0619C12.1184 28.2288 12.1597 28.2508 12.1858 28.2948C12.2119 28.3387 12.2249 28.4267 12.2249 28.5587V34.4515C12.2249 34.7286 12.1749 34.8672 12.075 34.8672H11.9446C11.8838 34.8672 11.836 34.8474 11.8012 34.8078C11.7708 34.7682 11.7447 34.678 11.723 34.5373L11.6057 33.6068C11.597 33.5496 11.5818 33.521 11.56 33.521C11.5513 33.521 11.5383 33.5518 11.5209 33.6134C11.4079 34.0841 11.232 34.4229 10.9929 34.6296C10.7539 34.8364 10.4889 34.9398 10.1977 34.9398Z" fill="white"/>
<path d="M15.5708 31.1587H17.3047C17.3134 31.1587 17.3177 31.1191 17.3177 31.0399C17.2917 30.2964 17.2113 29.7531 17.0766 29.41C16.9419 29.0624 16.7333 28.8886 16.4508 28.8886C15.925 28.8886 15.6252 29.5265 15.5513 30.8023C15.5513 31.0399 15.5578 31.1587 15.5708 31.1587ZM18.0413 33.2439C18.0413 33.7322 17.9131 34.1369 17.6567 34.4581C17.4046 34.7792 17.0288 34.9398 16.529 34.9398C15.2558 34.9398 14.6192 33.807 14.6192 31.5414C14.6192 30.9827 14.6561 30.4944 14.73 30.0764C14.8082 29.6541 14.906 29.3242 15.0233 29.0866C15.1406 28.8447 15.284 28.6511 15.4535 28.5059C15.623 28.3563 15.7859 28.2596 15.9424 28.2156C16.1032 28.1672 16.277 28.143 16.4638 28.143C17.5502 28.143 18.0934 29.1856 18.0934 31.2708C18.0934 31.5876 18.0282 31.7459 17.8979 31.7459H15.5904C15.56 31.7459 15.5448 31.7921 15.5448 31.8845C15.5448 32.32 15.5774 32.705 15.6425 33.0393C15.7077 33.3737 15.8185 33.6508 15.975 33.8708C16.1358 34.0863 16.3335 34.1941 16.5681 34.1941C16.7289 34.1941 16.8636 34.1567 16.9723 34.0819C17.0853 34.0028 17.1678 33.8906 17.22 33.7454C17.2765 33.6002 17.3134 33.477 17.3308 33.3759C17.3525 33.2703 17.3721 33.1361 17.3894 32.9733C17.3981 32.8853 17.4264 32.8414 17.4742 32.8414H17.9174C18 32.8414 18.0413 32.9315 18.0413 33.1119V33.2439Z" fill="white"/>
<path d="M21.7001 33.4287C21.8826 33.939 22.1129 34.1941 22.391 34.1941C22.6691 34.1941 22.8864 33.9764 23.0428 33.5408C23.2036 33.1053 23.284 32.4278 23.284 31.5084C23.284 30.6417 23.2036 29.9907 23.0428 29.5551C22.8864 29.1152 22.6735 28.8952 22.4041 28.8952C22.1303 28.8952 21.8978 29.1372 21.7066 29.6211C21.5197 30.105 21.4263 30.7341 21.4263 31.5084C21.4263 32.2739 21.5176 32.9139 21.7001 33.4287ZM22.567 34.9398C21.8935 34.9398 21.4307 34.4757 21.1786 33.5474C21.1699 33.5254 21.1612 33.5144 21.1526 33.5144C21.1352 33.5144 21.1113 33.6288 21.0808 33.8576C21.0548 34.0819 21.0178 34.3063 20.97 34.5307C20.9222 34.755 20.8657 34.8672 20.8006 34.8672H20.6702C20.5833 34.8672 20.5398 34.7374 20.5398 34.4779V25.8466C20.5398 25.5342 20.5942 25.3781 20.7028 25.3781H21.2699C21.3177 25.3781 21.3546 25.4221 21.3807 25.51C21.4111 25.5936 21.4263 25.7058 21.4263 25.8466V29.146C21.4263 29.2032 21.435 29.2318 21.4524 29.2318L21.485 29.1988C21.611 28.8513 21.7761 28.5895 21.9804 28.4135C22.189 28.2376 22.4127 28.1496 22.6517 28.1496C22.8603 28.1496 23.0515 28.2068 23.2254 28.3211C23.3992 28.4311 23.56 28.6115 23.7077 28.8623C23.8598 29.1086 23.9793 29.4627 24.0662 29.9247C24.1531 30.3822 24.1966 30.9277 24.1966 31.5612C24.1966 32.0495 24.164 32.4894 24.0988 32.8809C24.038 33.2681 23.9532 33.5892 23.8446 33.8444C23.7403 34.0951 23.6164 34.3063 23.473 34.4779C23.3296 34.645 23.1819 34.7638 23.0298 34.8342C22.8821 34.9046 22.7278 34.9398 22.567 34.9398Z" fill="white"/>
<path d="M27.3861 31.1587H29.1199C29.1286 31.1587 29.133 31.1191 29.133 31.0399C29.1069 30.2964 29.0265 29.7531 28.8918 29.41C28.7571 29.0624 28.5485 28.8886 28.266 28.8886C27.7402 28.8886 27.4404 29.5265 27.3665 30.8023C27.3665 31.0399 27.373 31.1587 27.3861 31.1587ZM29.8565 33.2439C29.8565 33.7322 29.7283 34.1369 29.4719 34.4581C29.2199 34.7792 28.844 34.9398 28.3443 34.9398C27.071 34.9398 26.4344 33.807 26.4344 31.5414C26.4344 30.9827 26.4714 30.4944 26.5452 30.0764C26.6234 29.6541 26.7212 29.3242 26.8385 29.0866C26.9559 28.8447 27.0993 28.6511 27.2688 28.5059C27.4382 28.3563 27.6012 28.2596 27.7576 28.2156C27.9184 28.1672 28.0922 28.143 28.2791 28.143C29.3655 28.143 29.9086 29.1856 29.9086 31.2708C29.9086 31.5876 29.8435 31.7459 29.7131 31.7459H27.4056C27.3752 31.7459 27.36 31.7921 27.36 31.8845C27.36 32.32 27.3926 32.705 27.4578 33.0393C27.523 33.3737 27.6338 33.6508 27.7902 33.8708C27.951 34.0863 28.1487 34.1941 28.3834 34.1941C28.5442 34.1941 28.6789 34.1567 28.7875 34.0819C28.9005 34.0028 28.9831 33.8906 29.0352 33.7454C29.0917 33.6002 29.1286 33.477 29.146 33.3759C29.1677 33.2703 29.1873 33.1361 29.2047 32.9733C29.2134 32.8853 29.2416 32.8414 29.2894 32.8414H29.7326C29.8152 32.8414 29.8565 32.9315 29.8565 33.1119V33.2439Z" fill="white"/>
<path d="M32.518 34.8672C32.4094 34.8672 32.3551 34.7572 32.3551 34.5373V28.6379C32.3551 28.3651 32.4072 28.2288 32.5115 28.2288H32.6354C32.6962 28.2288 32.7418 28.2486 32.7722 28.2882C32.807 28.3277 32.8352 28.4157 32.857 28.5521L32.9613 29.4166C32.9743 29.4649 32.9895 29.4891 33.0069 29.4891C33.0243 29.4891 33.0373 29.4649 33.046 29.4166C33.1155 29.157 33.2046 28.9392 33.3133 28.7633C33.4262 28.5873 33.5479 28.4575 33.6783 28.3739C33.813 28.2904 33.939 28.2332 34.0563 28.2024C34.178 28.1672 34.3105 28.1496 34.4539 28.1496C34.7538 28.1496 34.9971 28.2266 35.184 28.3805C35.3752 28.5301 35.5251 28.8117 35.6337 29.2252C35.7424 29.6343 35.7967 30.1886 35.7967 30.8881V34.5373C35.7967 34.6692 35.7837 34.7572 35.7576 34.8012C35.7315 34.8452 35.6924 34.8672 35.6403 34.8672H35.0667C35.0145 34.8672 34.9754 34.8452 34.9493 34.8012C34.9233 34.7572 34.9102 34.6692 34.9102 34.5373V30.7495C34.9102 30.1072 34.8581 29.6387 34.7538 29.344C34.6495 29.0448 34.4865 28.8952 34.2649 28.8952C33.9738 28.8952 33.7304 29.0844 33.5349 29.4627C33.3393 29.8367 33.2416 30.2898 33.2416 30.8221V34.5373C33.2416 34.6692 33.2285 34.7572 33.2024 34.8012C33.1764 34.8452 33.1373 34.8672 33.0851 34.8672H32.518Z" fill="white"/>
<path d="M28.6736 45.7711C28.5128 45.7711 28.3716 45.7645 28.2499 45.7513C28.1282 45.7425 27.9913 45.7183 27.8392 45.6787C27.6915 45.6391 27.5611 45.5864 27.4481 45.5204C27.3352 45.45 27.2178 45.3554 27.0961 45.2366C26.9745 45.1134 26.868 44.9683 26.7768 44.8011C26.6898 44.6339 26.6051 44.4294 26.5225 44.1874C26.44 43.941 26.3726 43.6639 26.3205 43.3559C26.2683 43.048 26.227 42.6895 26.1966 42.2803C26.1662 41.8712 26.151 41.4203 26.151 40.9276C26.151 40.3205 26.1749 39.775 26.2227 39.2911C26.2748 38.8027 26.3422 38.3914 26.4248 38.0571C26.5117 37.7227 26.6203 37.4346 26.7507 37.1926C26.8854 36.9463 27.0201 36.7549 27.1548 36.6185C27.2939 36.4778 27.4568 36.3678 27.6437 36.2886C27.8305 36.205 28.0044 36.1522 28.1651 36.1302C28.3259 36.1038 28.5106 36.0906 28.7192 36.0906C29.1103 36.0906 29.4319 36.1478 29.6839 36.2622C29.6882 36.2666 29.6969 36.2732 29.71 36.282C29.723 36.2908 29.7339 36.304 29.7426 36.3216C29.7512 36.3348 29.7556 36.3546 29.7556 36.381V37.0211C29.7556 37.0739 29.7404 37.1002 29.71 37.1002C29.7056 37.1002 29.6882 37.0958 29.6578 37.087C29.6274 37.0783 29.5861 37.0673 29.534 37.0541C29.4862 37.0409 29.4297 37.0277 29.3645 37.0145C29.2993 36.9969 29.2233 36.9837 29.1364 36.9749C29.0538 36.9661 28.9734 36.9617 28.8952 36.9617C28.6909 36.9617 28.5128 36.9859 28.3607 37.0343C28.2129 37.0783 28.0608 37.1816 27.9044 37.3444C27.7523 37.5028 27.6263 37.7227 27.5264 38.0043C27.4308 38.2858 27.3525 38.673 27.2917 39.1657C27.2309 39.654 27.2004 40.2413 27.2004 40.9276C27.2004 41.6227 27.2265 42.2165 27.2787 42.7093C27.3308 43.1976 27.3982 43.5847 27.4807 43.8707C27.5676 44.1522 27.6828 44.3722 27.8262 44.5305C27.9739 44.6889 28.1195 44.7923 28.2629 44.8407C28.4063 44.8847 28.5823 44.9067 28.7909 44.9067C29.1081 44.9067 29.3841 44.8649 29.6187 44.7813C29.6231 44.7813 29.6317 44.7989 29.6448 44.8341C29.6622 44.8649 29.6709 44.8847 29.6709 44.8935V45.5138C29.6709 45.5226 29.6622 45.5446 29.6448 45.5798C29.6317 45.6106 29.6231 45.6281 29.6187 45.6325C29.3754 45.7249 29.0603 45.7711 28.6736 45.7711Z" fill="white"/>
<path d="M33.4439 45.7513C33.2266 45.7513 33.0376 45.7183 32.8768 45.6523C32.716 45.582 32.5661 45.461 32.427 45.2894C32.2923 45.1134 32.188 44.8539 32.1142 44.5107C32.0446 44.1632 32.0099 43.7321 32.0099 43.2174V39.3702C32.0099 39.2383 32.0229 39.1503 32.049 39.1063C32.075 39.0623 32.1142 39.0403 32.1663 39.0403H32.7334C32.7899 39.0403 32.8312 39.0623 32.8572 39.1063C32.8833 39.1503 32.8963 39.2383 32.8963 39.3702V43.4549C32.8963 44.0268 32.955 44.4294 33.0723 44.6625C33.194 44.8913 33.3722 45.0057 33.6068 45.0057C33.8849 45.0057 34.1174 44.8165 34.3043 44.4382C34.4911 44.0554 34.5846 43.6309 34.5846 43.1646V39.3702C34.5846 39.2383 34.5976 39.1503 34.6237 39.1063C34.6498 39.0623 34.691 39.0403 34.7475 39.0403H35.3081C35.3646 39.0403 35.4059 39.0623 35.4319 39.1063C35.458 39.1503 35.4711 39.2383 35.4711 39.3702V45.263C35.4711 45.5402 35.4211 45.6787 35.3211 45.6787H35.1908C35.1299 45.6787 35.0821 45.6589 35.0474 45.6193C35.0169 45.5798 34.9909 45.4896 34.9691 45.3488L34.8518 44.4184C34.8431 44.3612 34.8279 44.3326 34.8062 44.3326C34.7975 44.3326 34.7845 44.3634 34.7671 44.425C34.6541 44.8957 34.4781 45.2344 34.2391 45.4412C34.0001 45.6479 33.735 45.7513 33.4439 45.7513Z" fill="white"/>
<path d="M38.0252 45.6787C37.9165 45.6787 37.8622 45.5402 37.8622 45.263V39.5088C37.8622 39.1965 37.9122 39.0403 38.0121 39.0403H38.1816C38.2859 39.0403 38.3511 39.1679 38.3771 39.423L38.4749 40.3667C38.4836 40.4239 38.4988 40.4525 38.5206 40.4525C38.5292 40.4525 38.5423 40.4217 38.5597 40.3601C38.7813 39.4274 39.1984 38.9611 39.8112 38.9611C40.0893 38.9611 40.3239 39.0623 40.5151 39.2647C40.7063 39.467 40.8584 39.808 40.9714 40.2875C40.9844 40.3183 40.9953 40.3337 41.004 40.3337C41.0214 40.3337 41.0344 40.3183 41.0431 40.2875C41.1561 39.8388 41.3277 39.5066 41.5581 39.2911C41.7884 39.0711 42.0295 38.9611 42.2816 38.9611C42.4467 38.9611 42.5901 38.9831 42.7118 39.0271C42.8378 39.0667 42.9573 39.1459 43.0703 39.2647C43.1876 39.379 43.2832 39.5374 43.3571 39.7398C43.431 39.9377 43.4896 40.2017 43.5331 40.5316C43.5765 40.8572 43.5983 41.2443 43.5983 41.693V45.263C43.5983 45.5402 43.5439 45.6787 43.4353 45.6787H42.8682C42.7639 45.6787 42.7118 45.5402 42.7118 45.263V41.5017C42.7118 40.8198 42.6618 40.3513 42.5619 40.0961C42.4663 39.8366 42.3098 39.7068 42.0925 39.7068C41.8362 39.7068 41.6189 39.8916 41.4407 40.2611C41.2669 40.6262 41.18 41.1167 41.18 41.7326V45.263C41.18 45.5402 41.1278 45.6787 41.0236 45.6787H40.4565C40.3478 45.6787 40.2935 45.5402 40.2935 45.263V41.5611C40.2935 40.866 40.2414 40.3843 40.1371 40.1159C40.0328 39.8432 39.872 39.7068 39.6547 39.7068C39.4635 39.7068 39.2984 39.8102 39.1593 40.0169C39.0203 40.2193 38.916 40.4745 38.8465 40.7824C38.7813 41.0903 38.7487 41.4225 38.7487 41.7788V45.263C38.7487 45.5402 38.6944 45.6787 38.5857 45.6787H38.0252Z" fill="white"/>
<path d="M47.078 44.2402C47.2605 44.7505 47.4908 45.0057 47.7689 45.0057C48.047 45.0057 48.2643 44.7879 48.4207 44.3524C48.5815 43.9168 48.6619 43.2394 48.6619 42.3199C48.6619 41.4533 48.5815 40.8022 48.4207 40.3667C48.2643 39.9267 48.0514 39.7068 47.7819 39.7068C47.5082 39.7068 47.2757 39.9487 47.0845 40.4327C46.8976 40.9166 46.8042 41.5457 46.8042 42.3199C46.8042 43.0854 46.8955 43.7255 47.078 44.2402ZM47.9449 45.7513C47.2713 45.7513 46.8085 45.2872 46.5565 44.359C46.5478 44.337 46.5391 44.326 46.5304 44.326C46.5131 44.326 46.4892 44.4404 46.4587 44.6691C46.4327 44.8935 46.3957 45.1178 46.3479 45.3422C46.3001 45.5666 46.2436 45.6787 46.1784 45.6787H46.0481C45.9612 45.6787 45.9177 45.549 45.9177 45.2894V36.6581C45.9177 36.3458 45.972 36.1896 46.0807 36.1896H46.6478C46.6956 36.1896 46.7325 36.2336 46.7586 36.3216C46.789 36.4052 46.8042 36.5173 46.8042 36.6581V39.9575C46.8042 40.0147 46.8129 40.0433 46.8303 40.0433L46.8629 40.0103C46.9889 39.6628 47.154 39.401 47.3583 39.2251C47.5668 39.0491 47.7906 38.9611 48.0296 38.9611C48.2382 38.9611 48.4294 39.0183 48.6032 39.1327C48.7771 39.2427 48.9378 39.423 49.0856 39.6738C49.2377 39.9202 49.3572 40.2743 49.4441 40.7362C49.531 41.1937 49.5745 41.7392 49.5745 42.3727C49.5745 42.861 49.5419 43.301 49.4767 43.6925C49.4158 44.0796 49.3311 44.4008 49.2225 44.6559C49.1182 44.9067 48.9943 45.1178 48.8509 45.2894C48.7075 45.4566 48.5598 45.5754 48.4077 45.6457C48.2599 45.7161 48.1057 45.7513 47.9449 45.7513Z" fill="white"/>
<path d="M52.6305 41.9702H54.3643C54.373 41.9702 54.3774 41.9306 54.3774 41.8514C54.3513 41.1079 54.2709 40.5646 54.1362 40.2215C54.0015 39.874 53.7929 39.7002 53.5104 39.7002C52.9846 39.7002 52.6848 40.3381 52.6109 41.6139C52.6109 41.8514 52.6174 41.9702 52.6305 41.9702ZM55.1009 44.0554C55.1009 44.5437 54.9727 44.9485 54.7163 45.2696C54.4643 45.5908 54.0884 45.7513 53.5887 45.7513C52.3154 45.7513 51.6788 44.6185 51.6788 42.3529C51.6788 41.7942 51.7157 41.3059 51.7896 40.888C51.8678 40.4657 51.9656 40.1357 52.0829 39.8982C52.2003 39.6562 52.3437 39.4626 52.5131 39.3175C52.6826 39.1679 52.8456 39.0711 53.002 39.0271C53.1628 38.9787 53.3366 38.9545 53.5235 38.9545C54.6098 38.9545 55.153 39.9971 55.153 42.0824C55.153 42.3991 55.0878 42.5575 54.9575 42.5575H52.65C52.6196 42.5575 52.6044 42.6037 52.6044 42.6961C52.6044 43.1316 52.637 43.5165 52.7022 43.8509C52.7674 44.1852 52.8782 44.4624 53.0346 44.6823C53.1954 44.8979 53.3931 45.0057 53.6278 45.0057C53.7885 45.0057 53.9233 44.9683 54.0319 44.8935C54.1449 44.8143 54.2274 44.7021 54.2796 44.5569C54.3361 44.4118 54.373 44.2886 54.3904 44.1874C54.4121 44.0818 54.4317 43.9476 54.4491 43.7849C54.4578 43.6969 54.486 43.6529 54.5338 43.6529H54.977C55.0596 43.6529 55.1009 43.7431 55.1009 43.9234V44.0554Z" fill="white"/>
<path d="M57.6289 45.6787C57.5203 45.6787 57.466 45.538 57.466 45.2564V39.5484C57.466 39.2097 57.5094 39.0403 57.5963 39.0403H57.7788C57.8266 39.0403 57.8636 39.0711 57.8897 39.1327C57.9157 39.1943 57.9418 39.3043 57.9679 39.4626L58.0852 40.3733C58.1026 40.4481 58.1178 40.4855 58.1308 40.4855C58.1482 40.4855 58.1612 40.4481 58.1699 40.3733C58.2873 39.9377 58.435 39.599 58.6132 39.357C58.7957 39.1151 58.9847 38.9919 59.1803 38.9875H59.2846C59.3758 38.9875 59.4388 39.0117 59.4736 39.0601C59.5083 39.1085 59.5257 39.1899 59.5257 39.3043V39.7794C59.5257 39.885 59.517 39.9553 59.4997 39.9905C59.4823 40.0213 59.4475 40.0367 59.3954 40.0367C59.2346 40.0455 59.1412 40.0543 59.1151 40.0631C58.9586 40.0983 58.8196 40.2369 58.6979 40.4789C58.5806 40.7164 58.4937 40.9848 58.4372 41.2839C58.3807 41.5787 58.3524 41.8646 58.3524 42.1418V45.2564C58.3524 45.538 58.3003 45.6787 58.196 45.6787H57.6289Z" fill="white"/>
<path d="M62.7317 44.2402C62.9142 44.7505 63.1445 45.0057 63.4226 45.0057C63.7007 45.0057 63.918 44.7879 64.0744 44.3524C64.2352 43.9168 64.3156 43.2394 64.3156 42.3199C64.3156 41.4533 64.2352 40.8022 64.0744 40.3667C63.918 39.9267 63.7051 39.7068 63.4356 39.7068C63.1619 39.7068 62.9294 39.9487 62.7382 40.4327C62.5513 40.9166 62.4579 41.5457 62.4579 42.3199C62.4579 43.0854 62.5492 43.7255 62.7317 44.2402ZM63.5986 45.7513C62.925 45.7513 62.4622 45.2872 62.2102 44.359C62.2015 44.337 62.1928 44.326 62.1841 44.326C62.1667 44.326 62.1428 44.4404 62.1124 44.6691C62.0864 44.8935 62.0494 45.1178 62.0016 45.3422C61.9538 45.5666 61.8973 45.6787 61.8321 45.6787H61.7018C61.6149 45.6787 61.5714 45.549 61.5714 45.2894V36.6581C61.5714 36.3458 61.6257 36.1896 61.7344 36.1896H62.3015C62.3493 36.1896 62.3862 36.2336 62.4123 36.3216C62.4427 36.4052 62.4579 36.5173 62.4579 36.6581V39.9575C62.4579 40.0147 62.4666 40.0433 62.484 40.0433L62.5166 40.0103C62.6426 39.6628 62.8077 39.401 63.0119 39.2251C63.2205 39.0491 63.4443 38.9611 63.6833 38.9611C63.8919 38.9611 64.0831 39.0183 64.2569 39.1327C64.4308 39.2427 64.5915 39.423 64.7393 39.6738C64.8914 39.9202 65.0109 40.2743 65.0978 40.7362C65.1847 41.1937 65.2282 41.7392 65.2282 42.3727C65.2282 42.861 65.1956 43.301 65.1304 43.6925C65.0695 44.0796 64.9848 44.4008 64.8762 44.6559C64.7719 44.9067 64.648 45.1178 64.5046 45.2894C64.3612 45.4566 64.2135 45.5754 64.0614 45.6457C63.9136 45.7161 63.7594 45.7513 63.5986 45.7513Z" fill="white"/>
<path d="M68.8187 45.0518C69.162 45.0518 69.4314 44.8275 69.6269 44.3788C69.8225 43.93 69.9202 43.3779 69.9202 42.7225C69.9202 42.4145 69.905 42.2605 69.8746 42.2605C69.8703 42.2605 69.8225 42.2671 69.7312 42.2803C69.6443 42.2935 69.5965 42.3023 69.5878 42.3067C69.062 42.4255 68.684 42.6301 68.4536 42.9204C68.2277 43.2108 68.1147 43.5825 68.1147 44.0356C68.1147 44.7131 68.3493 45.0518 68.8187 45.0518ZM68.6427 45.7579C68.2038 45.7579 67.8692 45.6149 67.6389 45.329C67.4129 45.0431 67.2999 44.6361 67.2999 44.1082C67.2999 43.7211 67.3586 43.3801 67.4759 43.0854C67.5932 42.7906 67.741 42.5663 67.9191 42.4123C68.0973 42.2539 68.295 42.122 68.5123 42.0164C68.7296 41.9108 68.9316 41.8426 69.1185 41.8118C69.3054 41.7766 69.4748 41.7436 69.6269 41.7128C69.779 41.682 69.8703 41.6556 69.9007 41.6336V41.2707C69.9007 40.7604 69.8442 40.3733 69.7312 40.1093C69.6226 39.841 69.4162 39.7068 69.112 39.7068C68.8426 39.7068 68.6427 39.7838 68.5123 39.9377C68.3863 40.0873 68.2755 40.3249 68.1799 40.6504C68.1538 40.7252 68.1277 40.7758 68.1017 40.8022C68.0756 40.8286 68.043 40.8374 68.0039 40.8286C67.943 40.8154 67.8366 40.7846 67.6845 40.7362C67.5367 40.6878 67.4607 40.6526 67.4563 40.6306C67.4129 40.5866 67.4151 40.4679 67.4629 40.2743C67.5411 39.9927 67.6432 39.7596 67.7692 39.5748C67.8952 39.39 68.0734 39.2427 68.3037 39.1327C68.5384 39.0183 68.823 38.9611 69.1576 38.9611C69.7095 38.9611 70.118 39.1635 70.383 39.5682C70.6525 39.9685 70.7872 40.6394 70.7872 41.5809V45.3554C70.7872 45.571 70.7415 45.6787 70.6503 45.6787H70.4939C70.4243 45.6787 70.3657 45.5886 70.3179 45.4082C70.1918 44.8715 70.1245 44.5481 70.1158 44.4382C70.1158 44.425 70.1114 44.4162 70.1028 44.4118C70.0941 44.403 70.0854 44.403 70.0767 44.4118C70.0723 44.4162 70.068 44.425 70.0636 44.4382C69.955 44.8649 69.7877 45.1926 69.5617 45.4214C69.3401 45.6457 69.0338 45.7579 68.6427 45.7579Z" fill="white"/>
<path d="M74.9774 45.6919C74.8166 45.6919 74.6754 45.6787 74.5537 45.6523C74.432 45.6215 74.3103 45.5622 74.1887 45.4742C74.0713 45.3862 73.9736 45.2674 73.8953 45.1178C73.8215 44.9639 73.7606 44.7615 73.7128 44.5107C73.6694 44.2556 73.6476 43.9542 73.6476 43.6067V39.9905C73.6476 39.9114 73.6237 39.8718 73.5759 39.8718H73.1588C73.0545 39.8718 73.0023 39.775 73.0023 39.5814V39.3307C73.0023 39.1371 73.0545 39.0403 73.1588 39.0403H73.5759C73.6194 39.0403 73.6433 38.9809 73.6476 38.8621L73.7585 36.5261C73.7628 36.3018 73.8171 36.1896 73.9214 36.1896H74.3777C74.4298 36.1896 74.4689 36.2138 74.495 36.2622C74.5211 36.3062 74.5341 36.3942 74.5341 36.5261V38.8621C74.5341 38.9809 74.5602 39.0403 74.6123 39.0403H75.4532C75.5053 39.0403 75.5445 39.0601 75.5705 39.0997C75.5966 39.1393 75.6096 39.2163 75.6096 39.3307V39.5814C75.6096 39.6958 75.5966 39.7728 75.5705 39.8124C75.5445 39.852 75.5053 39.8718 75.4532 39.8718H74.6123C74.5819 39.8718 74.5602 39.8784 74.5472 39.8916C74.5385 39.9048 74.5341 39.9377 74.5341 39.9905V43.6067C74.5341 43.9762 74.5645 44.2622 74.6254 44.4646C74.6906 44.6669 74.7623 44.7945 74.8405 44.8473C74.923 44.8957 75.0273 44.9199 75.1534 44.9199H75.6031C75.7204 44.9199 75.7791 44.9859 75.7791 45.1178V45.4676C75.7791 45.6171 75.7161 45.6919 75.5901 45.6919H74.9774Z" fill="white"/>
<path d="M79.5912 45.7513H79.5652C79.4218 45.7513 79.2914 45.7403 79.1741 45.7183C79.0567 45.7007 78.9307 45.6633 78.796 45.6062C78.6613 45.5446 78.5418 45.4654 78.4375 45.3686C78.3332 45.2674 78.2311 45.131 78.1312 44.9595C78.0312 44.7835 77.9486 44.5789 77.8835 44.3458C77.8183 44.1082 77.7661 43.8201 77.727 43.4813C77.6879 43.1382 77.6684 42.7533 77.6684 42.3265C77.6684 41.759 77.7053 41.2663 77.7792 40.8484C77.853 40.4305 77.9465 40.1027 78.0595 39.8652C78.1724 39.6276 78.3137 39.4384 78.4831 39.2977C78.657 39.1569 78.8221 39.0667 78.9785 39.0271C79.135 38.9831 79.3131 38.9611 79.513 38.9611C79.8042 38.9611 80.0779 39.0095 80.3343 39.1063C80.3474 39.1063 80.3626 39.1173 80.38 39.1393C80.3973 39.1613 80.406 39.1789 80.406 39.1921V39.7596C80.406 39.7816 80.3973 39.8036 80.38 39.8256C80.3626 39.8476 80.3474 39.8564 80.3343 39.852C80.0823 39.7728 79.878 39.7332 79.7216 39.7332C79.5912 39.7332 79.4826 39.7442 79.3957 39.7662C79.3088 39.7882 79.211 39.8476 79.1024 39.9443C78.9937 40.0411 78.9068 40.1797 78.8416 40.3601C78.7765 40.536 78.72 40.7912 78.6722 41.1255C78.6287 41.4555 78.607 41.8558 78.607 42.3265C78.607 42.8016 78.6265 43.2064 78.6657 43.5407C78.7091 43.8751 78.7613 44.1346 78.8221 44.3194C78.8873 44.5041 78.972 44.6471 79.0763 44.7483C79.1849 44.8495 79.2849 44.9133 79.3761 44.9397C79.4717 44.9617 79.5891 44.9727 79.7281 44.9727C79.9019 44.9727 80.104 44.9353 80.3343 44.8605C80.3474 44.8649 80.3626 44.8825 80.38 44.9133C80.4017 44.9397 80.4125 44.9617 80.4125 44.9793V45.5072C80.4125 45.5248 80.4017 45.549 80.38 45.5798C80.3626 45.6062 80.3474 45.6215 80.3343 45.6259C80.1084 45.7095 79.8607 45.7513 79.5912 45.7513Z" fill="white"/>
<path d="M82.6603 45.6787C82.6081 45.6787 82.569 45.6567 82.543 45.6128C82.5169 45.5688 82.5039 45.4808 82.5039 45.3488V36.5459C82.5039 36.3084 82.556 36.1896 82.6603 36.1896H83.2274C83.336 36.1896 83.3903 36.3084 83.3903 36.5459V39.9971C83.3903 40.0499 83.399 40.0763 83.4164 40.0763C83.4294 40.0763 83.4425 40.0653 83.4555 40.0433C83.5902 39.6694 83.7727 39.3966 84.0031 39.2251C84.2334 39.0491 84.468 38.9611 84.707 38.9611C84.9938 38.9611 85.2285 39.0425 85.411 39.2053C85.5935 39.3636 85.7391 39.6606 85.8477 40.0961C85.9564 40.5272 86.0107 41.1079 86.0107 41.8382V45.3488C86.0107 45.5688 85.9564 45.6787 85.8477 45.6787H85.2806C85.2285 45.6787 85.1894 45.6567 85.1633 45.6128C85.1372 45.5688 85.1242 45.4808 85.1242 45.3488V41.6798C85.1242 40.9936 85.0655 40.4942 84.9482 40.1819C84.8309 39.8652 84.6527 39.7068 84.4137 39.7068C84.1356 39.7068 83.8944 39.907 83.6902 40.3073C83.4903 40.7076 83.3903 41.1893 83.3903 41.7524V45.3488C83.3903 45.4808 83.3773 45.5688 83.3512 45.6128C83.3252 45.6567 83.286 45.6787 83.2339 45.6787H82.6603Z" fill="white"/>
</svg>
